#!OML:ASF \\Waltz\H\Terrain\Patient Classification 1\Animal2\Wednesday\Animal2.ASF
:FULLY-SPECIFIED
:DEGREES
57
root 13.0273 17.97 -23.0067 -3.44139 -70.1816 6.53315
lowerback 3.47441 0.791446 4.39096
upperback -6.45484 1.5376 3.63189
thorax -8.75392 0.54028 1.22735
lowerneck 10.0413 7.47374 17.7096
upperneck -14.488 9.95333 -21.6061
head -3.73874 5.47406 -10.3954
rclavicle 9.93923e-015 3.97569e-014
rhumerus 37.9122 33.3044 -29.4902
rradius 56.602
rwrist -27.9245
rhand -8.53532 18.1234
rfingers 7.12502
rthumb 17.3937 -11.1183
lclavicle 9.93923e-015 3.97569e-014
lhumerus 4.939 15.7408 0.816723
lradius 56.0001
lwrist 6.98072
lhand -50.9225 12.3272
lfingers 7.12502
lthumb -23.4742 40.9151
rfemur -12.1562 -4.88992 12.364
rtibia 17.433
rfoot -9.86676 -3.26312
rtoes 11.9015
lfemur -1.50613 -5.76083 -18.3311
ltibia 37.1304
lfoot -1.57065 -15.6206
ltoes 13.2745
58
root 12.9537 17.9871 -23.056 -2.07692 -69.3117 5.1048
lowerback 3.51162 0.830003 4.53729
upperback -6.42612 1.60859 3.71421
thorax -8.74414 0.568994 1.22486
lowerneck 10.1133 7.56595 16.6478
upperneck -14.7507 9.94353 -21.0595
head -3.92943 5.48618 -10.0485
rclavicle -1.59028e-015 2.22639e-014
rhumerus 38.1335 33.1229 -29.3051
rradius 56.4011
rwrist -27.5373
rhand -8.09596 18.4749
rfingers 7.12502
rthumb 17.8165 -10.7289
lclavicle -1.59028e-015 2.22639e-014
lhumerus 4.70981 15.9266 1.10505
lradius 56.1261
lwrist 6.78074
lhand -50.9249 11.9696
lfingers 7.12502
lthumb -23.4766 40.5572
rfemur -11.7683 -5.15616 13.046
rtibia 17.4729
rfoot -10.1953 -3.92768
rtoes 12.3967
lfemur -2.12125 -5.61219 -17.6624
ltibia 38.153
lfoot -2.64342 -14.0787
ltoes 12.0097
59
root 12.8779 18.0033 -23.1023 -0.603531 -68.4781 3.67871
lowerback 3.40572 1.03435 4.60828
upperback -6.39178 1.88288 3.76283
thorax -8.6413 0.702465 1.2079
lowerneck 10.1658 7.54774 16.5174
upperneck -15.0062 9.85449 -21.2098
head -4.02739 5.46057 -10.0994
rclavicle -1.21259e-014 -1.11319e-014
rhumerus 38.0519 32.7561 -29.0014
rradius 56.3564
rwrist -27.6045
rhand -8.15805 18.4747
rfingers 7.12502
rthumb 17.7568 -10.7346
lclavicle -1.21259e-014 -1.11319e-014
lhumerus 4.90439 16.1244 1.63061
lradius 56.2691
lwrist 6.54991
lhand -50.811 12.566
lfingers 7.12502
lthumb -23.3673 41.1676
rfemur -11.5688 -5.23988 13.7732
rtibia 17.6047
rfoot -10.569 -4.53998
rtoes 14.4978
lfemur -2.83245 -5.15056 -16.9036
ltibia 39.0389
lfoot -3.88125 -12.5453
ltoes 10.5878
60
root 12.8067 18.0059 -23.1421 0.0593851 -67.6436 3.17816
lowerback 3.32422 1.10196 4.60289
upperback -6.4246 1.96279 3.62707
thorax -8.62241 0.738289 1.05954
lowerneck 10.196 7.67294 16.8352
upperneck -15.0399 10.0273 -21.6868
head -3.95415 5.56542 -10.3172
rclavicle 5.36719e-015 -2.38542e-014
rhumerus 38.2319 32.6074 -28.9003
rradius 56.3441
rwrist -27.7787
rhand -8.54408 18.3258
rfingers 7.12502
rthumb 17.3853 -10.9167
lclavicle 5.36719e-015 -2.38542e-014
lhumerus 4.82219 16.0079 1.46284
lradius 56.3639
lwrist 6.79442
lhand -50.5494 12.4822
lfingers 7.12502
lthumb -23.1163 41.1154
rfemur -11.5301 -5.71573 14.1594
rtibia 17.8226
rfoot -10.9402 -4.89856
rtoes 14.2611
lfemur -3.59003 -4.47925 -16.5544
ltibia 39.7781
lfoot -5.73455 -10.875
ltoes 5.25369
61
root 12.7385 18.0162 -23.1807 0.0646033 -66.7402 3.24915
lowerback 3.45278 1.05883 4.58357
upperback -6.48814 1.90492 3.37506
thorax -8.75887 0.701468 0.807635
lowerneck 10.3184 7.80916 16.9891
upperneck -15.0469 10.2254 -21.9938
head -3.90494 5.68408 -10.4527
rclavicle -9.02482e-014 3.33958e-014
rhumerus 38.3998 32.5123 -29.272
rradius 56.1493
rwrist -27.5046
rhand -8.54445 18.4964
rfingers 7.12502
rthumb 17.3849 -10.7462
lclavicle -9.02482e-014 3.33958e-014
lhumerus 4.63409 15.8061 0.985758
lradius 56.2726
lwrist 6.94646
lhand -50.3104 12.0802
lfingers 7.12502
lthumb -22.887 40.742
rfemur -11.3534 -6.36204 14.2782
rtibia 18.06
rfoot -11.3127 -5.15862
rtoes 14.6808
lfemur -4.255 -3.84349 -16.5024
ltibia 40.4124
lfoot -7.35504 -9.07159
ltoes -0.480407
